<svg class="sFpEPc" focusable="false" viewBox="0 0 192 192" xmlns="http://www.w3.org/2000/svg"><rect fill="none" height="192" width="192"></rect><g><circle fill="hsla(136,53%,43%,1)" cx="144.07" cy="144" r="16"></circle><circle fill="hsla(217,60%,49%,1)" cx="96.07" cy="104" r="24"></circle><path fill="hsla(5,60%,56%,1)" d="M24,135.2c0,18.11,14.69,32.8,32.8,32.8H96v-16l-40.1-0.1c-8.8,0-15.9-8.19-15.9-17.9v-18H24V135.2z"></path><path fill="hsla(44,100%,20%,1)" d="M168,72.8c0-18.11-14.69-32.8-32.8-32.8H116l20,16c8.8,0,16,8.29,16,18v30h16V72.8z"></path><path fill="hsla(217,60%,49%,1)" d="M112,24l-32,0L68,40H56.8C38.69,40,24,54.69,24,72.8V92h16V74c0-9.71,7.2-18,16-18h80L112,24z"></path></g></svg>